<svg width="57" height="63" viewBox="0 0 57 63" fill="none" xmlns="http://www.w3.org/2000/svg">
<path d="M56.5664 37.9092C56.5664 38.7797 55.8627 39.4861 54.9941 39.4863H17.3027C17.3027 17.679 34.8816 0.00021359 56.5664 0V37.9092ZM51.0156 6.02148C36.8399 8.38533 25.6469 19.6493 23.3066 33.9209H51.0156V6.02148Z" fill="#DA1C85"/>
<path fill-rule="evenodd" clip-rule="evenodd" d="M-0.000392914 26.2341C-0.000392914 24.7319 1.21739 23.5141 2.71961 23.5141L39.2637 23.5141C39.2637 33.3656 35.6762 42.3744 29.7434 49.2915C22.5431 57.6862 11.8884 63 -0.000392914 63L-0.000392914 26.2341Z" fill="#6A2FEE" style="mix-blend-mode:multiply"/>
<path fill-rule="evenodd" clip-rule="evenodd" d="M-0.000392914 26.2341C-0.000392914 24.7319 1.21739 23.5141 2.71961 23.5141L39.2637 23.5141C39.2637 33.3656 35.6762 42.3744 29.7434 49.2915C22.5431 57.6862 11.8884 63 -0.000392914 63L-0.000392914 26.2341Z" stroke="#6A2FEE"/>
</svg>
